<svg width="32" height="33" viewBox="0 0 32 33" fill="none" xmlns="http://www.w3.org/2000/svg">
<rect y="0.254883" width="32" height="31.9998" rx="4" fill="#0088FF" fill-opacity="0.1"/>
<g filter="url(#filter0_b_1304_67910)">
<rect x="0.5" y="0.754883" width="31" height="30.9998" rx="3.5" stroke="url(#paint0_linear_1304_67910)"/>
</g>
<path d="M16 13.438C15.5095 13.438 15.03 13.5834 14.6222 13.8559C14.2144 14.1284 13.8965 14.5158 13.7088 14.9689C13.5211 15.4221 13.472 15.9207 13.5677 16.4018C13.6633 16.8829 13.8995 17.3248 14.2464 17.6716C14.5932 18.0184 15.0351 18.2546 15.5162 18.3503C15.9972 18.446 16.4959 18.3969 16.9491 18.2092C17.4022 18.0215 17.7895 17.7036 18.062 17.2958C18.3346 16.8879 18.48 16.4085 18.48 15.918C18.48 15.5923 18.4159 15.2698 18.2912 14.9689C18.1666 14.668 17.9839 14.3946 17.7536 14.1643C17.5233 13.9341 17.2499 13.7514 16.9491 13.6267C16.6482 13.5021 16.3257 13.438 16 13.438ZM25.93 10.988C25.9254 10.2157 25.7832 9.45037 25.51 8.72797C25.3093 8.19923 24.9987 7.71906 24.5988 7.31915C24.1989 6.91925 23.7187 6.60869 23.19 6.40797C22.4676 6.13482 21.7023 5.99259 20.93 5.98797C19.64 5.91797 19.26 5.91797 16 5.91797C12.74 5.91797 12.36 5.91797 11.07 5.98797C10.2977 5.99259 9.5324 6.13482 8.81 6.40797C8.28126 6.60869 7.80109 6.91925 7.40119 7.31915C7.00128 7.71906 6.69072 8.19923 6.49 8.72797C6.21685 9.45037 6.07462 10.2157 6.07 10.988C6 12.278 6 12.658 6 15.918C6 19.178 6 19.558 6.07 20.848C6.08153 21.6229 6.22352 22.3903 6.49 23.118C6.6887 23.6449 6.99915 24.1225 7.4 24.518C7.7984 24.92 8.27953 25.2305 8.81 25.428C9.5324 25.7011 10.2977 25.8433 11.07 25.848C12.36 25.918 12.74 25.918 16 25.918C19.26 25.918 19.64 25.918 20.93 25.848C21.7023 25.8433 22.4676 25.7011 23.19 25.428C23.7205 25.2305 24.2016 24.92 24.6 24.518C25.0008 24.1225 25.3113 23.6449 25.51 23.118C25.7823 22.3919 25.9244 21.6234 25.93 20.848C26 19.558 26 19.178 26 15.918C26 12.658 26 12.278 25.93 10.988ZM23.39 18.988C23.3584 19.6051 23.2267 20.2131 23 20.788C22.8059 21.2677 22.5173 21.7034 22.1514 22.0693C21.7854 22.4352 21.3497 22.7238 20.87 22.918C20.2897 23.1321 19.6783 23.2503 19.06 23.268H12.94C12.3217 23.2503 11.7103 23.1321 11.13 22.918C10.6339 22.734 10.1861 22.44 9.82 22.058C9.45742 21.6994 9.17756 21.266 9 20.788C8.78574 20.208 8.6708 19.5961 8.66 18.978V12.858C8.6708 12.2398 8.78574 11.6279 9 11.048C9.18397 10.5519 9.47801 10.104 9.86 9.73797C10.2205 9.37783 10.6534 9.09834 11.13 8.91797C11.7103 8.70386 12.3217 8.58565 12.94 8.56797H19.06C19.6783 8.58565 20.2897 8.70386 20.87 8.91797C21.3661 9.10194 21.8139 9.39598 22.18 9.77797C22.5426 10.1365 22.8224 10.57 23 11.048C23.2141 11.6283 23.3323 12.2396 23.35 12.858V15.918C23.35 17.978 23.42 18.188 23.39 18.978V18.988ZM21.79 11.548C21.6709 11.225 21.4832 10.9316 21.2398 10.6882C20.9964 10.4448 20.703 10.257 20.38 10.138C19.9365 9.98423 19.4693 9.90976 19 9.91797H13C12.5283 9.92258 12.0611 10.0106 11.62 10.178C11.3019 10.2916 11.0117 10.4717 10.7686 10.7062C10.5255 10.9407 10.3351 11.2242 10.21 11.538C10.0653 11.9835 9.99437 12.4496 10 12.918V18.918C10.0105 19.3891 10.0983 19.8553 10.26 20.298C10.3791 20.621 10.5668 20.9143 10.8102 21.1578C11.0536 21.4012 11.347 21.5889 11.67 21.708C12.0968 21.8644 12.5457 21.9521 13 21.968H19C19.4717 21.9634 19.9389 21.8753 20.38 21.708C20.703 21.5889 20.9964 21.4012 21.2398 21.1578C21.4832 20.9143 21.6709 20.621 21.79 20.298C21.9574 19.8569 22.0454 19.3897 22.05 18.918V12.918C22.0498 12.4458 21.9616 11.9778 21.79 11.538V11.548ZM16 19.738C15.4988 19.738 15.0026 19.6391 14.5397 19.447C14.0768 19.2549 13.6563 18.9734 13.3024 18.6185C12.9485 18.2637 12.668 17.8425 12.4771 17.3791C12.2863 16.9157 12.1887 16.4191 12.19 15.918C12.19 15.162 12.4143 14.4231 12.8345 13.7947C13.2547 13.1662 13.8519 12.6766 14.5505 12.3878C15.2491 12.099 16.0177 12.0239 16.7589 12.1721C17.5002 12.3203 18.1808 12.6851 18.7147 13.2204C19.2485 13.7556 19.6116 14.4372 19.7578 15.1789C19.9041 15.9205 19.827 16.6889 19.5363 17.3868C19.2457 18.0846 18.7545 18.6805 18.125 19.099C17.4955 19.5176 16.7559 19.7399 16 19.738ZM20 12.848C19.7789 12.8246 19.5744 12.7202 19.4257 12.5549C19.277 12.3897 19.1947 12.1753 19.1947 11.953C19.1947 11.7307 19.277 11.5162 19.4257 11.351C19.5744 11.1857 19.7789 11.0814 20 11.058C20.2211 11.0814 20.4256 11.1857 20.5743 11.351C20.723 11.5162 20.8053 11.7307 20.8053 11.953C20.8053 12.1753 20.723 12.3897 20.5743 12.5549C20.4256 12.7202 20.2211 12.8246 20 12.848Z" fill="url(#paint1_linear_1304_67910)"/>
<defs>
<filter id="filter0_b_1304_67910" x="-8" y="-7.74512" width="48" height="48" filterUnits="userSpaceOnUse" color-interpolation-filters="sRGB">
<feFlood flood-opacity="0" result="BackgroundImageFix"/>
<feGaussianBlur in="BackgroundImageFix" stdDeviation="4"/>
<feComposite in2="SourceAlpha" operator="in" result="effect1_backgroundBlur_1304_67910"/>
<feBlend mode="normal" in="SourceGraphic" in2="effect1_backgroundBlur_1304_67910" result="shape"/>
</filter>
<linearGradient id="paint0_linear_1304_67910" x1="0" y1="16.2548" x2="32" y2="16.2548" gradientUnits="userSpaceOnUse">
<stop stop-color="#0454FF"/>
<stop offset="1" stop-color="#2916B9"/>
</linearGradient>
<linearGradient id="paint1_linear_1304_67910" x1="6" y1="15.918" x2="26" y2="15.918" gradientUnits="userSpaceOnUse">
<stop stop-color="#0454FF"/>
<stop offset="1" stop-color="#2916B9"/>
</linearGradient>
</defs>
</svg>
