<svg width="32" height="33" viewBox="0 0 32 33" fill="none" xmlns="http://www.w3.org/2000/svg">
<rect y="0.254883" width="32" height="32" rx="4" fill="#0454FF" fill-opacity="0.04"/>
<rect x="0.25" y="0.504883" width="31.5" height="31.5" rx="3.75" stroke="url(#paint0_linear_1304_69328)" stroke-width="0.5"/>
<path d="M24.6646 7.9717L6.93461 14.8087C5.72461 15.2947 5.73161 15.9697 6.71261 16.2707L11.2646 17.6907L21.7966 11.0457C22.2946 10.7427 22.7496 10.9057 22.3756 11.2377L13.8426 18.9387H13.8406L13.8426 18.9397L13.5286 23.6317C13.9886 23.6317 14.1916 23.4207 14.4496 23.1717L16.6606 21.0217L21.2596 24.4187C22.1076 24.8857 22.7166 24.6457 22.9276 23.6337L25.9466 9.4057C26.2556 8.1667 25.4736 7.6057 24.6646 7.9717Z" fill="url(#paint1_linear_1304_69328)"/>
<defs>
<linearGradient id="paint0_linear_1304_69328" x1="0" y1="16.2549" x2="32" y2="16.2549" gradientUnits="userSpaceOnUse">
<stop stop-color="#0454FF"/>
<stop offset="1" stop-color="#2916B9"/>
</linearGradient>
<linearGradient id="paint1_linear_1304_69328" x1="6" y1="16.2545" x2="26.0156" y2="16.2545" gradientUnits="userSpaceOnUse">
<stop stop-color="#0454FF"/>
<stop offset="1" stop-color="#2916B9"/>
</linearGradient>
</defs>
</svg>
