<svg width="41" height="40" viewBox="0 0 41 40" fill="none" xmlns="http://www.w3.org/2000/svg">
<path d="M20.4987 15.8654C19.6812 15.8654 18.8821 16.1078 18.2023 16.562C17.5226 17.0161 16.9928 17.6617 16.68 18.4169C16.3672 19.1722 16.2853 20.0033 16.4448 20.8051C16.6043 21.6069 16.9979 22.3433 17.576 22.9214C18.154 23.4995 18.8905 23.8931 19.6923 24.0526C20.4941 24.2121 21.3252 24.1302 22.0805 23.8174C22.8357 23.5046 23.4813 22.9748 23.9354 22.2951C24.3896 21.6153 24.632 20.8162 24.632 19.9987C24.632 19.4559 24.5251 18.9184 24.3174 18.4169C24.1097 17.9155 23.8052 17.4598 23.4214 17.076C23.0376 16.6922 22.5819 16.3877 22.0805 16.18C21.579 15.9723 21.0415 15.8654 20.4987 15.8654ZM37.0487 11.782C37.041 10.4949 36.804 9.21936 36.3487 8.01536C36.0142 7.13413 35.4966 6.33385 34.8301 5.66734C34.1635 5.00083 33.3633 4.48323 32.482 4.1487C31.278 3.69344 30.0025 3.4564 28.7154 3.4487C26.5654 3.33203 25.932 3.33203 20.4987 3.33203C15.0654 3.33203 14.432 3.33203 12.282 3.4487C10.9949 3.4564 9.71936 3.69344 8.51536 4.1487C7.63413 4.48323 6.83385 5.00083 6.16734 5.66734C5.50083 6.33385 4.98323 7.13413 4.6487 8.01536C4.19344 9.21936 3.9564 10.4949 3.9487 11.782C3.83203 13.932 3.83203 14.5654 3.83203 19.9987C3.83203 25.432 3.83203 26.0654 3.9487 28.2154C3.96791 29.5068 4.20456 30.7858 4.6487 31.9987C4.97987 32.8769 5.49729 33.6729 6.16536 34.332C6.82936 35.0021 7.63125 35.5197 8.51536 35.8487C9.71936 36.304 10.9949 36.541 12.282 36.5487C14.432 36.6654 15.0654 36.6654 20.4987 36.6654C25.932 36.6654 26.5654 36.6654 28.7154 36.5487C30.0025 36.541 31.278 36.304 32.482 35.8487C33.3661 35.5197 34.168 35.0021 34.832 34.332C35.5001 33.6729 36.0175 32.8769 36.3487 31.9987C36.8025 30.7885 37.0394 29.5078 37.0487 28.2154C37.1654 26.0654 37.1654 25.432 37.1654 19.9987C37.1654 14.5654 37.1654 13.932 37.0487 11.782ZM32.8154 25.1154C32.7628 26.144 32.5432 27.1572 32.1654 28.1154C31.8418 28.9148 31.3608 29.6411 30.751 30.251C30.1411 30.8608 29.4148 31.3418 28.6154 31.6654C27.6481 32.0222 26.6292 32.2192 25.5987 32.2487H15.3987C14.3682 32.2192 13.3493 32.0222 12.382 31.6654C11.5553 31.3587 10.8088 30.8687 10.1987 30.232C9.59439 29.6345 9.12796 28.9121 8.83203 28.1154C8.47494 27.1488 8.28336 26.129 8.26536 25.0987V14.8987C8.28336 13.8684 8.47494 12.8486 8.83203 11.882C9.13865 11.0553 9.62871 10.3088 10.2654 9.6987C10.8662 9.09847 11.5877 8.63264 12.382 8.33203C13.3493 7.97519 14.3682 7.77817 15.3987 7.7487H25.5987C26.6292 7.77817 27.6481 7.97519 28.6154 8.33203C29.4421 8.63865 30.1886 9.12871 30.7987 9.76537C31.403 10.3629 31.8694 11.0853 32.1654 11.882C32.5222 12.8493 32.7192 13.8682 32.7487 14.8987V19.9987C32.7487 23.432 32.8654 23.782 32.8154 25.0987V25.1154ZM30.1487 12.7154C29.9503 12.177 29.6374 11.6881 29.2317 11.2824C28.826 10.8767 28.3371 10.5638 27.7987 10.3654C27.0595 10.1091 26.2809 9.98502 25.4987 9.9987H15.4987C14.7125 10.0064 13.9338 10.1531 13.1987 10.432C12.6686 10.6215 12.1849 10.9216 11.7797 11.3124C11.3745 11.7032 11.0571 12.1758 10.8487 12.6987C10.6075 13.4412 10.4893 14.2181 10.4987 14.9987V24.9987C10.5161 25.7839 10.6625 26.561 10.932 27.2987C11.1305 27.8371 11.4433 28.326 11.8491 28.7317C12.2548 29.1374 12.7437 29.4503 13.282 29.6487C13.9934 29.9094 14.7415 30.0557 15.4987 30.082H25.4987C26.2849 30.0743 27.0636 29.9276 27.7987 29.6487C28.3371 29.4503 28.826 29.1374 29.2317 28.7317C29.6374 28.326 29.9503 27.8371 30.1487 27.2987C30.4276 26.5636 30.5743 25.7849 30.582 24.9987V14.9987C30.5817 14.2118 30.4348 13.4318 30.1487 12.6987V12.7154ZM20.4987 26.3654C19.6634 26.3654 18.8363 26.2006 18.0648 25.8804C17.2933 25.5603 16.5925 25.091 16.0027 24.4996C15.4128 23.9082 14.9454 23.2062 14.6273 22.4339C14.3091 21.6615 14.1465 20.834 14.1487 19.9987C14.1487 18.7388 14.5225 17.5072 15.2228 16.4598C15.9232 15.4125 16.9185 14.5965 18.0828 14.1151C19.2471 13.6337 20.5281 13.5086 21.7636 13.7556C22.999 14.0026 24.1334 14.6106 25.0232 15.5027C25.9129 16.3948 26.518 17.5308 26.7617 18.7669C27.0055 20.003 26.877 21.2836 26.3926 22.4467C25.9082 23.6097 25.0895 24.6029 24.0404 25.3005C22.9912 25.9981 21.7586 26.3687 20.4987 26.3654ZM27.1654 14.882C26.7969 14.843 26.456 14.6691 26.2082 14.3936C25.9604 14.1182 25.8233 13.7609 25.8233 13.3904C25.8233 13.0199 25.9604 12.6625 26.2082 12.3871C26.456 12.1117 26.7969 11.9377 27.1654 11.8987C27.5338 11.9377 27.8748 12.1117 28.1226 12.3871C28.3704 12.6625 28.5075 13.0199 28.5075 13.3904C28.5075 13.7609 28.3704 14.1182 28.1226 14.3936C27.8748 14.6691 27.5338 14.843 27.1654 14.882Z" fill="url(#paint0_linear_1424_41027)"/>
<defs>
<linearGradient id="paint0_linear_1424_41027" x1="3.83203" y1="19.9987" x2="37.1654" y2="19.9987" gradientUnits="userSpaceOnUse">
<stop stop-color="#0454FF"/>
<stop offset="1" stop-color="#2916B9"/>
</linearGradient>
</defs>
</svg>
