<svg width="22" height="23" viewBox="0 0 22 23" fill="none" xmlns="http://www.w3.org/2000/svg">
<path d="M20.8999 10.1549H12.1V1.35481C12.1 0.747746 11.6072 0.254883 10.9999 0.254883C10.3928 0.254883 9.89997 0.747746 9.89997 1.35481V10.1549H1.09993C0.492864 10.1549 0 10.6477 0 11.2548C0 11.862 0.492864 12.3549 1.09993 12.3549H9.89997V21.1548C9.89997 21.762 10.3928 22.2549 10.9999 22.2549C11.6072 22.2549 12.1 21.762 12.1 21.1548V12.3549H20.8999C21.5071 12.3549 22 11.862 22 11.2548C22 10.6477 21.5071 10.1549 20.8999 10.1549Z" fill="#0D1319"/>
</svg>
