<svg width="17" height="17" viewBox="0 0 17 17" fill="none" xmlns="http://www.w3.org/2000/svg">
<path d="M14.3307 8.34139C14.2307 8.34805 14.1374 8.38139 14.0707 8.45472L13.4041 9.12139L14.7707 10.4547L15.4374 9.78805C15.5841 9.64805 15.5841 9.41472 15.4374 9.27472L14.6107 8.45472C14.544 8.38579 14.4533 8.34521 14.3574 8.34139M13.0241 9.50805L8.9974 13.5481V14.9214H10.3707L14.4107 10.8747M13.6641 2.92139H2.9974C2.64377 2.92139 2.30464 3.06186 2.05459 3.31191C1.80454 3.56196 1.66406 3.9011 1.66406 4.25472V12.2547C1.66406 12.6083 1.80454 12.9475 2.05459 13.1975C2.30464 13.4476 2.64377 13.5881 2.9974 13.5881H7.66406V12.9947L13.1574 7.51472C13.4707 7.18805 13.9041 7.00805 14.3574 7.00805C14.5841 7.00805 14.8107 7.04805 15.0241 7.13472V4.25472C15.0241 3.50805 14.4107 2.92139 13.6641 2.92139ZM13.6641 5.58805L8.33073 8.92139L2.9974 5.58805V4.25472L8.33073 7.58805L13.6641 4.25472" fill="url(#paint0_linear_1352_322)"/>
<defs>
<linearGradient id="paint0_linear_1352_322" x1="1.66406" y1="8.92139" x2="15.5474" y2="8.92139" gradientUnits="userSpaceOnUse">
<stop stop-color="#0454FF"/>
<stop offset="1" stop-color="#2916B9"/>
</linearGradient>
</defs>
</svg>
