<svg width="17" height="17" viewBox="0 0 17 17" fill="none" xmlns="http://www.w3.org/2000/svg">
<path d="M5.33073 2.06618L1.66406 4.20551V14.5882L5.33073 13.0768V2.06618ZM6.66406 12.8615L7.83073 13.5502V11.4215C7.83058 10.6479 8.02989 9.88724 8.40942 9.21308C8.78895 8.53892 9.33587 7.97399 9.9974 7.57284V3.64884L6.66406 1.68018V12.8615ZM14.9974 1.92151V7.79618C14.4765 7.41389 13.8796 7.14791 13.247 7.01622C12.6144 6.88453 11.9609 6.8902 11.3307 7.03284V3.43284L14.9974 1.92151ZM12.3307 16.0555L12.1954 15.9662C12.0727 15.8855 11.9501 15.8048 11.8307 15.7182C11.3812 15.3865 10.9648 15.012 10.5874 14.6002C9.92406 13.8708 9.16406 12.7555 9.16406 11.4215C9.16406 11.0057 9.24597 10.5939 9.40511 10.2097C9.56425 9.82548 9.79751 9.47639 10.0916 9.18234C10.3856 8.88828 10.7347 8.65503 11.1189 8.49589C11.5031 8.33675 11.9149 8.25484 12.3307 8.25484C12.7466 8.25484 13.1584 8.33675 13.5426 8.49589C13.9268 8.65503 14.2758 8.88828 14.5699 9.18234C14.864 9.47639 15.0972 9.82548 15.2563 10.2097C15.4155 10.5939 15.4974 11.0057 15.4974 11.4215C15.4974 12.7555 14.7374 13.8708 14.0741 14.6002C13.6966 15.012 13.2802 15.3865 12.8307 15.7182C12.7114 15.8048 12.5887 15.8848 12.4661 15.9662L12.3307 16.0555ZM13.1641 10.9215H11.4974V12.2548H13.1641V10.9215Z" fill="url(#paint0_linear_1352_314)"/>
<defs>
<linearGradient id="paint0_linear_1352_314" x1="1.66406" y1="8.86784" x2="15.4974" y2="8.86784" gradientUnits="userSpaceOnUse">
<stop stop-color="#0454FF"/>
<stop offset="1" stop-color="#2916B9"/>
</linearGradient>
</defs>
</svg>
