<svg width="24" height="25" viewBox="0 0 24 25" fill="none" xmlns="http://www.w3.org/2000/svg">
<path d="M12 10.438C11.5095 10.438 11.03 10.5834 10.6222 10.8559C10.2144 11.1284 9.89648 11.5158 9.70878 11.9689C9.52107 12.4221 9.47196 12.9207 9.56765 13.4018C9.66334 13.8829 9.89954 14.3248 10.2464 14.6716C10.5932 15.0184 11.0351 15.2546 11.5162 15.3503C11.9972 15.446 12.4959 15.3969 12.9491 15.2092C13.4022 15.0215 13.7895 14.7036 14.062 14.2958C14.3346 13.8879 14.48 13.4085 14.48 12.918C14.48 12.5923 14.4159 12.2698 14.2912 11.9689C14.1666 11.668 13.9839 11.3946 13.7536 11.1643C13.5233 10.9341 13.2499 10.7514 12.9491 10.6267C12.6482 10.5021 12.3257 10.438 12 10.438ZM21.93 7.98797C21.9254 7.21567 21.7832 6.45037 21.51 5.72797C21.3093 5.19923 20.9987 4.71906 20.5988 4.31915C20.1989 3.91925 19.7187 3.60869 19.19 3.40797C18.4676 3.13482 17.7023 2.99259 16.93 2.98797C15.64 2.91797 15.26 2.91797 12 2.91797C8.74 2.91797 8.36 2.91797 7.07 2.98797C6.2977 2.99259 5.5324 3.13482 4.81 3.40797C4.28126 3.60869 3.80109 3.91925 3.40119 4.31915C3.00128 4.71906 2.69072 5.19923 2.49 5.72797C2.21685 6.45037 2.07462 7.21567 2.07 7.98797C2 9.27797 2 9.65797 2 12.918C2 16.178 2 16.558 2.07 17.848C2.08153 18.6229 2.22352 19.3903 2.49 20.118C2.6887 20.6449 2.99915 21.1225 3.4 21.518C3.7984 21.92 4.27953 22.2305 4.81 22.428C5.5324 22.7011 6.2977 22.8433 7.07 22.848C8.36 22.918 8.74 22.918 12 22.918C15.26 22.918 15.64 22.918 16.93 22.848C17.7023 22.8433 18.4676 22.7011 19.19 22.428C19.7205 22.2305 20.2016 21.92 20.6 21.518C21.0008 21.1225 21.3113 20.6449 21.51 20.118C21.7823 19.3919 21.9244 18.6234 21.93 17.848C22 16.558 22 16.178 22 12.918C22 9.65797 22 9.27797 21.93 7.98797ZM19.39 15.988C19.3584 16.6051 19.2267 17.2131 19 17.788C18.8059 18.2677 18.5173 18.7034 18.1514 19.0693C17.7854 19.4352 17.3497 19.7238 16.87 19.918C16.2897 20.1321 15.6783 20.2503 15.06 20.268H8.94C8.32167 20.2503 7.71035 20.1321 7.13 19.918C6.63395 19.734 6.18605 19.44 5.82 19.058C5.45742 18.6994 5.17756 18.266 5 17.788C4.78574 17.208 4.6708 16.5961 4.66 15.978V9.85797C4.6708 9.23981 4.78574 8.6279 5 8.04797C5.18397 7.55191 5.47801 7.10402 5.86 6.73797C6.22053 6.37783 6.6534 6.09834 7.13 5.91797C7.71035 5.70386 8.32167 5.58565 8.94 5.56797H15.06C15.6783 5.58565 16.2897 5.70386 16.87 5.91797C17.3661 6.10194 17.8139 6.39598 18.18 6.77797C18.5426 7.13651 18.8224 7.56996 19 8.04797C19.2141 8.62831 19.3323 9.23964 19.35 9.85797V12.918C19.35 14.978 19.42 15.188 19.39 15.978V15.988ZM17.79 8.54797C17.6709 8.22495 17.4832 7.93161 17.2398 7.68818C16.9964 7.44475 16.703 7.25703 16.38 7.13797C15.9365 6.98423 15.4693 6.90976 15 6.91797H9C8.52827 6.92258 8.06107 7.0106 7.62 7.17797C7.30193 7.29163 7.01169 7.47168 6.76858 7.70617C6.52547 7.94066 6.33506 8.22421 6.21 8.53797C6.06531 8.98346 5.99437 9.4496 6 9.91797V15.918C6.01046 16.3891 6.0983 16.8553 6.26 17.298C6.37906 17.621 6.56678 17.9143 6.81021 18.1578C7.05364 18.4012 7.34698 18.5889 7.67 18.708C8.0968 18.8644 8.54571 18.9521 9 18.968H15C15.4717 18.9634 15.9389 18.8753 16.38 18.708C16.703 18.5889 16.9964 18.4012 17.2398 18.1578C17.4832 17.9143 17.6709 17.621 17.79 17.298C17.9574 16.8569 18.0454 16.3897 18.05 15.918V9.91797C18.0498 9.44581 17.9616 8.97782 17.79 8.53797V8.54797ZM12 16.738C11.4988 16.738 11.0026 16.6391 10.5397 16.447C10.0768 16.2549 9.6563 15.9734 9.30238 15.6185C8.94846 15.2637 8.66803 14.8425 8.47714 14.3791C8.28626 13.9157 8.18868 13.4191 8.19 12.918C8.19 12.162 8.4143 11.4231 8.83449 10.7947C9.25468 10.1662 9.85187 9.67663 10.5505 9.3878C11.2491 9.09897 12.0177 9.02391 12.7589 9.17212C13.5002 9.32032 14.1808 9.68514 14.7147 10.2204C15.2485 10.7556 15.6116 11.4372 15.7578 12.1789C15.9041 12.9205 15.827 13.6889 15.5363 14.3868C15.2457 15.0846 14.7545 15.6805 14.125 16.099C13.4955 16.5176 12.7559 16.7399 12 16.738ZM16 9.84797C15.7789 9.82457 15.5744 9.72019 15.4257 9.55494C15.277 9.38969 15.1947 9.17526 15.1947 8.95297C15.1947 8.73068 15.277 8.51625 15.4257 8.351C15.5744 8.18575 15.7789 8.08137 16 8.05797C16.2211 8.08137 16.4256 8.18575 16.5743 8.351C16.723 8.51625 16.8053 8.73068 16.8053 8.95297C16.8053 9.17526 16.723 9.38969 16.5743 9.55494C16.4256 9.72019 16.2211 9.82457 16 9.84797Z" fill="url(#paint0_linear_3008_334)"/>
<defs>
<linearGradient id="paint0_linear_3008_334" x1="2" y1="12.918" x2="22" y2="12.918" gradientUnits="userSpaceOnUse">
<stop stop-color="#0454FF"/>
<stop offset="1" stop-color="#2916B9"/>
</linearGradient>
</defs>
</svg>
