<svg width="24" height="25" viewBox="0 0 24 25" fill="none" xmlns="http://www.w3.org/2000/svg">
<path d="M10.5005 16.7551C11.2884 16.7551 12.0687 16.5999 12.7966 16.2984C13.5246 15.9969 14.186 15.5549 14.7431 14.9978C15.3003 14.4406 15.7423 13.7792 16.0438 13.0512C16.3453 12.3233 16.5005 11.5431 16.5005 10.7551C16.5005 9.96721 16.3453 9.18699 16.0438 8.45904C15.7423 7.73109 15.3003 7.06965 14.7431 6.5125C14.186 5.95535 13.5246 5.51339 12.7966 5.21186C12.0687 4.91034 11.2884 4.75514 10.5005 4.75514C8.9092 4.75514 7.38308 5.38728 6.25786 6.5125C5.13264 7.63772 4.5005 9.16384 4.5005 10.7551C4.5005 12.3464 5.13264 13.8726 6.25786 14.9978C7.38308 16.123 8.9092 16.7551 10.5005 16.7551ZM16.8205 15.6611L20.4005 19.2411C20.4959 19.3335 20.572 19.4439 20.6244 19.5659C20.6767 19.6879 20.7042 19.8192 20.7052 19.952C20.7063 20.0847 20.6809 20.2164 20.6305 20.3393C20.5802 20.4621 20.5058 20.5737 20.4119 20.6675C20.3179 20.7614 20.2062 20.8355 20.0833 20.8857C19.9604 20.9359 19.8287 20.9611 19.6959 20.9599C19.5631 20.9586 19.4319 20.931 19.3099 20.8785C19.188 20.826 19.0777 20.7497 18.9855 20.6541L15.4055 17.0741C13.798 18.322 11.7753 18.9103 9.74926 18.7193C7.72322 18.5284 5.84611 17.5725 4.50005 16.0462C3.154 14.5199 2.44019 12.5381 2.50393 10.5041C2.56767 8.47004 3.40417 6.53677 4.84315 5.09779C6.28213 3.65881 8.2154 2.82231 10.2494 2.75857C12.2834 2.69483 14.2653 3.40864 15.7916 4.75469C17.3178 6.10075 18.2737 7.97786 18.4647 10.0039C18.6557 12.0299 18.0674 14.0526 16.8195 15.6601L16.8205 15.6611Z" fill="#0D1319"/>
</svg>
