<svg width="16" height="14" viewBox="0 0 16 14" fill="none" xmlns="http://www.w3.org/2000/svg">
<path d="M14.6654 6.83464V3.24397C14.6654 2.71664 14.6654 2.4533 14.536 2.1813C14.4417 2.00101 14.3139 1.84036 14.1594 1.70797C13.9234 1.5213 13.726 1.47664 13.332 1.38597C12.7187 1.24597 12.0427 1.16797 11.332 1.16797C10.054 1.16797 8.8867 1.41997 7.9987 1.83464C7.1107 2.2493 5.94336 2.5013 4.66536 2.5013C3.9547 2.5013 3.2787 2.4233 2.66536 2.2833C2.02536 2.13664 1.33203 2.5873 1.33203 3.24397V10.4253C1.33203 10.9526 1.33203 11.2166 1.46136 11.488C1.5347 11.6433 1.70336 11.8546 1.83803 11.9613C2.07403 12.148 2.27136 12.1926 2.66536 12.2833C3.2787 12.4233 3.9547 12.5013 4.66536 12.5013C5.6447 12.5013 6.5587 12.3533 7.33203 12.098M9.33203 11.8346C9.33203 11.8346 9.9987 11.8346 10.6654 13.168C10.6654 13.168 12.7834 9.83464 14.6654 9.16797" stroke="#111420" stroke-width="0.8" stroke-linecap="round" stroke-linejoin="round"/>
<path d="M3.66406 7.5013V7.5073M12.3307 6.16264V6.1693M9.66406 6.83464C9.66406 7.27666 9.48847 7.70059 9.17591 8.01315C8.86335 8.32571 8.43942 8.5013 7.9974 8.5013C7.55537 8.5013 7.13145 8.32571 6.81888 8.01315C6.50632 7.70059 6.33073 7.27666 6.33073 6.83464C6.33073 6.39261 6.50632 5.96868 6.81888 5.65612C7.13145 5.34356 7.55537 5.16797 7.9974 5.16797C8.43942 5.16797 8.86335 5.34356 9.17591 5.65612C9.48847 5.96868 9.66406 6.39261 9.66406 6.83464Z" stroke="#111420" stroke-width="0.6" stroke-linecap="round" stroke-linejoin="round"/>
</svg>
