<svg width="16" height="17" viewBox="0 0 16 17" fill="none" xmlns="http://www.w3.org/2000/svg">
<path d="M0.644531 11.9009L0.829404 11.1787H4.14233L3.95746 11.9009H0.644531ZM2.12352 9.17811L2.30839 8.45588H6.36081L6.17594 9.17811H2.12352ZM12.8735 13.8032L13.2433 10.8869L13.7646 6.69222L13.9643 5.12716L12.8735 13.8032ZM4.0144 14.5117C3.77875 14.5117 3.57539 14.4443 3.40432 14.3095C3.23276 14.1747 3.14697 14.0013 3.14697 13.7895H12.418C12.5511 13.7895 12.665 13.7478 12.7596 13.6645C12.8543 13.5813 12.911 13.4748 12.9297 13.3453L13.8933 5.62694C13.912 5.49694 13.8741 5.38139 13.7794 5.28027C13.6847 5.17916 13.5709 5.12813 13.4378 5.12716H11.5609L11.3287 6.95366C11.3139 7.05622 11.2666 7.13927 11.1867 7.20283C11.1069 7.26638 11.0144 7.29527 10.9094 7.2895C10.8133 7.2842 10.7329 7.24327 10.6684 7.16672C10.6033 7.09016 10.5784 7.00518 10.5937 6.91177L10.817 5.12716H7.12396L6.89176 6.94933C6.87697 7.05189 6.82965 7.13566 6.74978 7.20066C6.66992 7.26566 6.57723 7.29527 6.47173 7.2895C6.37609 7.28372 6.29499 7.24207 6.22844 7.16455C6.16188 7.08703 6.13625 7.00133 6.15153 6.90744L6.37486 5.12716H4.10018C4.13962 4.87535 4.26903 4.69118 4.48841 4.57466C4.7073 4.45863 4.94764 4.40061 5.20942 4.40061H6.46138L6.50353 4.0395C6.60213 3.23879 6.88881 2.6172 7.36356 2.17472C7.83832 1.73224 8.48562 1.51124 9.30547 1.51172C10.0277 1.51172 10.6176 1.77894 11.0751 2.31339C11.5326 2.84783 11.7266 3.46942 11.6571 4.17816L11.629 4.40061H13.5428C13.8731 4.4035 14.1482 4.52579 14.368 4.7675C14.5879 5.00872 14.6766 5.29039 14.6343 5.6125L13.6529 13.3908C13.613 13.7149 13.4686 13.9828 13.2196 14.1947C12.9706 14.4065 12.6803 14.5122 12.3485 14.5117H4.0144ZM7.20087 4.40061H10.8939L10.922 4.17816C10.9723 3.66057 10.8288 3.2075 10.4916 2.81894C10.1549 2.42894 9.72624 2.23394 9.20564 2.23394C8.62242 2.23394 8.16665 2.39115 7.83831 2.70555C7.50998 3.01996 7.31155 3.46461 7.24302 4.0395L7.20087 4.40061Z" fill="#111420"/>
</svg>
