<svg width="18" height="19" viewBox="0 0 18 19" fill="none" xmlns="http://www.w3.org/2000/svg">
<path d="M8.25 5C8.25 5.59674 8.64509 6.16903 9.34835 6.59099C10.0516 7.01295 11.0054 7.25 12 7.25C12.9946 7.25 13.9484 7.01295 14.6517 6.59099C15.3549 6.16903 15.75 5.59674 15.75 5C15.75 4.40326 15.3549 3.83097 14.6517 3.40901C13.9484 2.98705 12.9946 2.75 12 2.75C11.0054 2.75 10.0516 2.98705 9.34835 3.40901C8.64509 3.83097 8.25 4.40326 8.25 5Z" stroke="#111420" stroke-linecap="round" stroke-linejoin="round"/>
<path d="M8.25 5V8C8.25 9.24275 9.92925 10.25 12 10.25C14.0707 10.25 15.75 9.24275 15.75 8V5" stroke="#111420" stroke-linecap="round" stroke-linejoin="round"/>
<path d="M8.25 8V11C8.25 12.2427 9.92925 13.25 12 13.25C14.0707 13.25 15.75 12.2427 15.75 11V8" stroke="#111420" stroke-linecap="round" stroke-linejoin="round"/>
<path d="M8.25 11V14C8.25 15.2427 9.92925 16.25 12 16.25C14.0707 16.25 15.75 15.2427 15.75 14V11M5.25 7.25H3.375C3.07663 7.25 2.79048 7.36853 2.5795 7.5795C2.36853 7.79048 2.25 8.07663 2.25 8.375C2.25 8.67337 2.36853 8.95952 2.5795 9.1705C2.79048 9.38147 3.07663 9.5 3.375 9.5H4.125C4.42337 9.5 4.70952 9.61853 4.9205 9.8295C5.13147 10.0405 5.25 10.3266 5.25 10.625C5.25 10.9234 5.13147 11.2095 4.9205 11.4205C4.70952 11.6315 4.42337 11.75 4.125 11.75H2.25M3.75 11.75V12.5M3.75 6.5V7.25" stroke="#111420" stroke-linecap="round" stroke-linejoin="round"/>
</svg>
