<svg width="17" height="16" viewBox="0 0 17 16" fill="none" xmlns="http://www.w3.org/2000/svg">
<g clip-path="url(#clip0_1460_34120)">
<path d="M12.5 5.32715C13.6046 5.32715 14.5 4.43172 14.5 3.32715C14.5 2.22258 13.6046 1.32715 12.5 1.32715C11.3954 1.32715 10.5 2.22258 10.5 3.32715C10.5 4.43172 11.3954 5.32715 12.5 5.32715Z" stroke="#111420" stroke-width="1.2" stroke-linecap="round" stroke-linejoin="round"/>
<path d="M4.5 9.99414C5.60457 9.99414 6.5 9.09871 6.5 7.99414C6.5 6.88957 5.60457 5.99414 4.5 5.99414C3.39543 5.99414 2.5 6.88957 2.5 7.99414C2.5 9.09871 3.39543 9.99414 4.5 9.99414Z" stroke="#111420" stroke-width="1.2" stroke-linecap="round" stroke-linejoin="round"/>
<path d="M12.5 14.6611C13.6046 14.6611 14.5 13.7657 14.5 12.6611C14.5 11.5566 13.6046 10.6611 12.5 10.6611C11.3954 10.6611 10.5 11.5566 10.5 12.6611C10.5 13.7657 11.3954 14.6611 12.5 14.6611Z" stroke="#111420" stroke-width="1.2" stroke-linecap="round" stroke-linejoin="round"/>
<path d="M6.22656 9.00098L10.7799 11.6543" stroke="#111420" stroke-width="1.2" stroke-linecap="round" stroke-linejoin="round"/>
<path d="M10.7732 4.33398L6.22656 6.98732" stroke="#111420" stroke-width="1.2" stroke-linecap="round" stroke-linejoin="round"/>
</g>
<defs>
<clipPath id="clip0_1460_34120">
<rect width="16" height="16" fill="white" transform="translate(0.5 -0.00585938)"/>
</clipPath>
</defs>
</svg>
